<svg id="Capa_1" enable-background="new 0 0 512 512" height="512" viewBox="0 0 512 512" width="512" xmlns="http://www.w3.org/2000/svg"><g><g><path d="m282.186 512c-30.417 0-55.163-24.746-55.163-55.163v-13.526c0-4.204 3.408-7.612 7.612-7.612s7.612 3.407 7.612 7.612v13.526c0 22.023 17.917 39.94 39.94 39.94s39.94-17.917 39.94-39.94v-317.886c0-4.204 3.408-7.612 7.612-7.612s7.612 3.407 7.612 7.612v317.886c-.001 30.417-24.747 55.163-55.165 55.163z" fill="#ffe97b"/></g><g><path d="m411.308 355.997h-79.513c-4.204 0-7.612-3.407-7.612-7.612s3.408-7.612 7.612-7.612h79.513c18.388 0 33.347-14.959 33.347-33.347v-168.475c0-4.204 3.408-7.612 7.612-7.612s7.612 3.407 7.612 7.612v168.476c0 26.782-21.789 48.57-48.571 48.57z" fill="#ffe97b"/></g><path d="m219.208 407.155v26.804c0 8.52 6.907 15.427 15.427 15.427s15.427-6.907 15.427-15.427v-26.804z" fill="#3f6d8e"/><path d="m234.635 433.959v-26.804h-15.427v26.804c0 8.52 6.907 15.427 15.427 15.427 2.813 0 5.443-.765 7.713-2.081-4.606-2.668-7.713-7.639-7.713-13.346z" fill="#365e7d"/><path d="m449.332 60.603c9.005 0 16.305 7.3 16.305 16.305v48.673c0 7.384-5.986 13.37-13.37 13.37-7.384 0-13.37-5.986-13.37-13.37v-64.978z" fill="#dbedff"/><path d="m332.673 60.603c-9.005 0-16.305 7.3-16.305 16.305v48.673c0 7.384 5.986 13.37 13.37 13.37 7.384 0 13.37-5.986 13.37-13.37v-64.978z" fill="#dbedff"/><path d="m364.577 46.718h-10.142c-6.788 0-12.342 5.554-12.342 12.342v26.318c0 6.788 5.554 12.342 12.342 12.342h10.142c6.788 0 12.342-5.554 12.342-12.342v-26.318c0-6.788-5.554-12.342-12.342-12.342z" fill="#b5dcff"/><path d="m260.963 0h-191.28c-12.88 0-23.32 10.441-23.32 23.32v364.574c0 12.88 10.441 23.32 23.32 23.32h191.279c12.88 0 23.32-10.441 23.32-23.32v-364.574c.001-12.879-10.44-23.32-23.319-23.32z" fill="#477b9e"/><path d="m80.062 387.894v-364.574c0-12.88 10.441-23.32 23.32-23.32h-33.699c-12.88 0-23.321 10.441-23.321 23.32v364.574c0 12.88 10.441 23.321 23.321 23.321h33.699c-12.879 0-23.32-10.441-23.32-23.321z" fill="#3f6d8e"/><path d="m77.217 58.573v151.711c0 5.943 4.818 10.76 10.76 10.76h154.691c5.943 0 10.76-4.818 10.76-10.76v-151.711z" fill="#dbedff"/><path d="m110.916 210.284v-151.711h-33.699v151.711c0 5.943 4.818 10.76 10.76 10.76h33.7c-5.943 0-10.761-4.817-10.761-10.76z" fill="#b5dcff"/><ellipse cx="129.494" cy="175.824" fill="#fcc101" rx="19.449" ry="15.756" transform="matrix(.948 -.317 .317 .948 -49.051 50.108)"/><path d="m130.163 181.989c-2.525-7.556 2.322-16.1 10.974-20.105-4.567-2.455-10.648-3.004-16.636-1.003-10.188 3.405-16.211 12.855-13.453 21.108s13.253 12.184 23.44 8.78c.861-.288 1.68-.633 2.479-1.003-3.203-1.723-5.667-4.375-6.804-7.777z" fill="#e1960f"/><g><g><path d="m140.998 180.571c-4.204 0-7.612-3.407-7.612-7.612v-68.016c0-4.204 3.408-7.612 7.612-7.612s7.612 3.407 7.612 7.612v68.016c-.001 4.204-3.408 7.612-7.612 7.612z" fill="#fcc101"/></g></g><ellipse cx="191.415" cy="164.854" fill="#f4dd45" rx="19.449" ry="15.756" transform="matrix(.948 -.317 .317 .948 -42.381 69.168)"/><path d="m192.084 171.018c-2.525-7.556 2.322-16.1 10.973-20.105-4.567-2.455-10.648-3.004-16.636-1.003-10.188 3.404-16.211 12.855-13.453 21.108s13.253 12.184 23.441 8.78c.861-.288 1.68-.633 2.479-1.003-3.203-1.722-5.668-4.374-6.804-7.777z" fill="#fcc101"/><g><g><path d="m202.918 169.6c-4.204 0-7.612-3.407-7.612-7.612v-68.016c0-4.204 3.408-7.612 7.612-7.612s7.612 3.407 7.612 7.612v68.016c0 4.205-3.408 7.612-7.612 7.612z" fill="#f4dd45"/></g></g><path d="m201.852 86.422-60.396 10.909c-1.878.333-3.247 1.965-3.247 3.872v21.729l68.261-12.302v-20.336c0-2.446-2.209-4.298-4.618-3.872z" fill="#f4dd45"/><path d="m165.323 96.201c0-1.367.602-2.608 1.567-3.464l-25.434 4.594c-1.878.333-3.247 1.965-3.247 3.872v21.729l27.114-4.886z" fill="#fcc101"/><path d="m234.635 316.13c0-38.219-31.093-69.312-69.311-69.312s-69.313 31.093-69.313 69.312 31.094 69.312 69.313 69.312 69.311-31.094 69.311-69.312z" fill="#3f6d8e"/><path d="m137.158 316.129c0-31.058 20.534-57.41 48.739-66.195-6.503-2.025-13.413-3.117-20.574-3.117-38.219 0-69.312 31.093-69.312 69.312s31.094 69.312 69.312 69.312c7.161 0 14.071-1.092 20.574-3.117-28.205-8.784-48.739-35.136-48.739-66.195z" fill="#365e7d"/><path d="m197.579 316.13c0-17.786-14.47-32.256-32.256-32.256s-32.257 14.47-32.257 32.256 14.47 32.256 32.257 32.256 32.256-14.47 32.256-32.256z" fill="#477b9e"/><g><g><path d="m168.922 323.741h-7.199c-4.204 0-7.612-3.407-7.612-7.612 0-4.204 3.408-7.612 7.612-7.612h7.199c4.204 0 7.612 3.407 7.612 7.612s-3.408 7.612-7.612 7.612z" fill="#365e7d"/></g></g><g><g><path d="m247.686 261.347h-7.199c-4.204 0-7.612-3.407-7.612-7.612s3.408-7.612 7.612-7.612h7.199c4.204 0 7.612 3.407 7.612 7.612s-3.408 7.612-7.612 7.612z" fill="#365e7d"/></g></g><g><g><path d="m90.159 261.347h-7.199c-4.204 0-7.612-3.407-7.612-7.612s3.408-7.612 7.612-7.612h7.199c4.204 0 7.612 3.407 7.612 7.612s-3.409 7.612-7.612 7.612z" fill="#365e7d"/></g></g><path d="m427.57 46.718h-10.143c-6.788 0-12.342 5.554-12.342 12.342v26.318c0 6.788 5.554 12.342 12.342 12.342h10.143c6.788 0 12.342-5.554 12.342-12.342v-26.318c0-6.788-5.554-12.342-12.342-12.342z" fill="#b5dcff"/><path d="m359.506 85.378v-26.318c0-5.524 3.678-10.229 8.706-11.791-1.151-.357-2.371-.551-3.635-.551h-10.142c-6.788 0-12.342 5.554-12.342 12.342v26.318c0 6.788 5.554 12.342 12.342 12.342h10.142c1.264 0 2.485-.194 3.635-.551-5.027-1.562-8.706-6.267-8.706-11.791z" fill="#8bcaff"/><path d="m422.499 85.378v-26.318c0-5.524 3.679-10.23 8.707-11.791-1.151-.357-2.371-.551-3.635-.551h-10.143c-6.788 0-12.342 5.554-12.342 12.342v26.318c0 6.788 5.554 12.342 12.342 12.342h10.143c1.264 0 2.485-.194 3.635-.551-5.028-1.562-8.707-6.267-8.707-11.791z" fill="#8bcaff"/><path d="m242.668 30.854h-154.691c-5.943 0-10.76 4.818-10.76 10.76v18.988h176.211v-18.987c0-5.943-4.817-10.761-10.76-10.761z" fill="#f87c68"/><path d="m121.677 30.854h-33.7c-5.943 0-10.76 4.817-10.76 10.76v18.988h33.699v-18.987c0-5.943 4.818-10.761 10.761-10.761z" fill="#ec625e"/></g></svg>